<?xml version="1.0" encoding="utf-8"?>
<!-- Generator: Adobe Illustrator 22.0.1, SVG Export Plug-In . SVG Version: 6.00 Build 0)  -->
<svg version="1.1" id="Layer_1" xmlns="http://www.w3.org/2000/svg" xmlns:xlink="http://www.w3.org/1999/xlink" x="0px" y="0px"
	 viewBox="0 0 1920 1080" style="enable-background:new 0 0 1920 1080;" xml:space="preserve">
<style type="text/css">
	.st0{fill:none;stroke:#FFFFFF;stroke-width:26.1205;stroke-miterlimit:10;}
	.st1{fill:none;stroke:#FFFFFF;stroke-width:23.0729;stroke-miterlimit:10;}
	.st2{fill:none;stroke:#FFFFFF;stroke-width:23.9195;stroke-miterlimit:10;}
	.st3{fill:none;stroke:#FFFFFF;stroke-width:26.1205;stroke-linecap:square;stroke-linejoin:bevel;stroke-miterlimit:10;}
	.st4{fill:none;stroke:#FFFFFF;stroke-width:25.7888;stroke-linecap:square;stroke-linejoin:round;stroke-miterlimit:10;}
</style>
<g>
	<path class="st0" d="M975.7,530.9c0,0,125.8-68,128.1-120.1c1.9-43.5-50.1-57.9-83.9-3.4c-33.7,54.5-37.4,149.6,32.9,145.1
		c46.6-3,81-42,81-42"/>
	<path class="st0" d="M823.6,842.9c0,0,125.8-68,128.1-120.1c1.9-43.5-50.1-57.9-83.9-3.4S830.4,869,900.7,864.4c46.6-3,81-42,81-42
		"/>
	
		<ellipse transform="matrix(0.2743 -0.9616 0.9616 0.2743 723.4583 1879.9005)" class="st0" cx="1607.3" cy="460.6" rx="90.5" ry="60.4"/>
	
		<ellipse transform="matrix(0.2743 -0.9616 0.9616 0.2743 588.259 1700.7462)" class="st0" cx="1421" cy="460.6" rx="90.5" ry="60.4"/>
	<path class="st0" d="M1549.2,446.6c0,0-5.7,27.8,51.5,13.9c34.1-8.3,108.8-53,108.8-58.6s-7-11.2-12.6-2.8
		c-5.6,8.4-55.7,124.2-33.5,143.7c12.6,11.1,27.9,1.4,27.9,1.4"/>
	<path class="st0" d="M964.2,837.4c32.2-14,89.9-126.8,89.9-132.3s-7-11.2-12.6-2.8s-58.9,137.9-36.6,157.5
		c12.6,11.1,34.5-24.2,34.5-24.2"/>
	<path class="st0" d="M800.9,490.6c36.2-41.2,41.4-111.7,37.7-116.4c-7.2-9-14.7-1.9-14.1,4.4c0.4,4.4,51.4,19.2,86.4,13.1"/>
	<path class="st0" d="M1109.7,530.6c48.9-24.7,91.4-150.5,91.4-150.5l-55.8,175.8"/>
	<path class="st0" d="M1187.1,420.1c0,0,43.3-54.4,71.2-47.4c35.7,8.9,41.9,37.7,30.7,87.9s-18.1,76.7,2.8,80.9
		c20.9,4.2,60-62.8,65.6-75.3"/>
	<path class="st0" d="M904.4,392c41.9-1.2,37.9,18.3,26.8,68.5s-18.1,76.7,2.8,80.9c20.9,4.2,53.9-16.2,69.3-27.4"/>
	<g>
		<path class="st0" d="M647.4,22c0,0-254.9,680.4-367,677.3c-59.2-1.6,5.8-199.2,42.6-224.1c11.3-7.7,22.2-8,27.1,2.7
			c13.3,29-116.7,129.1-139.6-27.3"/>
		<path class="st0" d="M445.5,291.4c0,0,39.3-189.6,216.7-199.9c133.6-7.8,101.5,128.3,71.8,167.4c-26.7,35.2-45.5,39.3-45.5,39.3"
			/>
		<path class="st0" d="M641.7,306c0,0,88-27,121.4,16.1c40.9,52.8,15.9,111.6-35.4,171.4C676.3,553.2,579,589.8,537.7,588
			c-61.3-2.7-101.8-49.2-88.4-109.2"/>
	</g>
	<g>
		<path class="st1" d="M1024.4,947.2c-64.5,111.5-253.1,154.7-520.2,44.6c-102.7-42.3-96,107,15.6,55.2
			c97.9-45.5,130.7-424.8,284.1-507.4c52.6-28.3,72.4,23,28.3,78.8C771.5,695.2,609.5,742,575.4,755.9"/>
	</g>
	<path class="st0" d="M1544.1,471.9c-3.3,50-32.9,72.4-46.7,75c-43.3,8.4-1.1-121.1,3.1-154.6s51.6-220.5,89.3-221.9
		c47.9-1.8-26.5,152.1-53,195.3c-22.4,36.5-54.4,62.8-100.5,86.5s-73.5-8.3-73.5-8.3"/>
	<path class="st2" d="M360.1,805.4c0,0,87.4-68.6,159.5,3.2c48.5,48.3,37.7,108,9.2,119.8c-29.6,12.3-90.3-128.6,68.5-181"/>
	<path class="st3" d="M1029.9,848c3.8-3.9,91.3-120.1,91.3-120.1s-39.7,172.6,12.4,128.6c16.8-14.2,66-142.3,56.5-170.2
		c-5.6-16.3-57.3,16.3,8.4,76.7"/>
	<g>
		<path class="st3" d="M1189.5,843.4c0,2.4,1.3,25.9,19,16.9c49.1-25,105.3-187.7,105.3-187.7s-34.6,150.4-27.2,169.9
			c8.9,23.5,30.8,26.1,58.8-0.4"/>
		<line class="st3" x1="1321.2" y1="636.3" x2="1318.9" y2="645.6"/>
	</g>
	<path class="st4" d="M1336.3,848c40.2-28.7,59.1-60.3,57.3-141c-1.4-61.8-38.2-11.8,9.1,16.5c45.7,27.4,134.5,139.2-41.9,137.7
		c-56-0.5-28.6-60.6,5.4-52.7c60.9,14.1,112.1,54.5,155.5,27.4c41.6-26,46.3-68.3,43.6-93.9c-7.6-70.3-88.5-109.6-103.7-86.7
		c-25.4,38.1,128.1,79.1,92.9-41"/>
</g>
</svg>
